<svg version="1.2" xmlns="http://www.w3.org/2000/svg" viewBox="0 0 254 151" width="254" height="151"><style>.a{fill:#f3e8ff;stroke:#9333ea;stroke-width:2}.b{fill:none;stroke:#9333ea;stroke-linecap:round;stroke-width:2}.c{fill:#9333ea}.d{fill:none;stroke:#fff;stroke-linecap:round;stroke-linejoin:round;stroke-width:2}</style><path fill-rule="evenodd" class="a" d="m10 1h84c4.4 0 8 3.6 8 8v134c0 4.4-3.6 8-8 8h-84c-4.4 0-8-3.6-8-8v-134c0-4.4 3.6-8 8-8z"/><path fill-rule="evenodd" class="a" d="m160 1h84c4.4 0 8 3.6 8 8v134c0 4.4-3.6 8-8 8h-84c-4.4 0-8-3.6-8-8v-134c0-4.4 3.6-8 8-8z"/><path fill-rule="evenodd" class="b" d="m112 76h30m-15-15v30"/><path fill-rule="evenodd" class="b" d="m22 26h60m-60 25h40"/><path fill-rule="evenodd" class="b" d="m172 26h60m-60 25h40"/><path fill-rule="evenodd" class="c" d="m52 121c-11.1 0-20-8.9-20-20 0-11.1 8.9-20 20-20 11.1 0 20 8.9 20 20 0 11.1-8.9 20-20 20z"/><path fill-rule="evenodd" class="c" d="m202 121c-11.1 0-20-8.9-20-20 0-11.1 8.9-20 20-20 11.1 0 20 8.9 20 20 0 11.1-8.9 20-20 20z"/><path fill-rule="evenodd" class="d" d="m42 101l8 8 12-16"/><path fill-rule="evenodd" class="d" d="m192 101l8 8 12-16"/></svg>