<svg width="48" height="48" viewBox="0 0 48 48" fill="none" xmlns="http://www.w3.org/2000/svg">
  <rect width="48" height="48" rx="8" fill="#F3E8FF"/>
  <path d="M32 24C32 28.4183 28.4183 32 24 32C19.5817 32 16 28.4183 16 24C16 19.5817 19.5817 16 24 16C28.4183 16 32 19.5817 32 24Z" stroke="#9333EA" stroke-width="2"/>
  <path d="M28 24C28 26.2091 26.2091 28 24 28C21.7909 28 20 26.2091 20 24C20 21.7909 21.7909 20 24 20C26.2091 20 28 21.7909 28 24Z" stroke="#9333EA" stroke-width="2"/>
  <path d="M24 16V13" stroke="#9333EA" stroke-width="2" stroke-linecap="round"/>
  <path d="M32 24H35" stroke="#9333EA" stroke-width="2" stroke-linecap="round"/>
  <path d="M24 35V32" stroke="#9333EA" stroke-width="2" stroke-linecap="round"/>
  <path d="M13 24H16" stroke="#9333EA" stroke-width="2" stroke-linecap="round"/>
  <path d="M29.5 18.5L31.5 16.5" stroke="#9333EA" stroke-width="2" stroke-linecap="round"/>
  <path d="M29.5 29.5L31.5 31.5" stroke="#9333EA" stroke-width="2" stroke-linecap="round"/>
  <path d="M18.5 29.5L16.5 31.5" stroke="#9333EA" stroke-width="2" stroke-linecap="round"/>
  <path d="M18.5 18.5L16.5 16.5" stroke="#9333EA" stroke-width="2" stroke-linecap="round"/>
</svg>
